ply 
format ascii 1.0
comment this is a triangulation indendent for parameterization
element vertex 515
property float x
property float y
property float z 
element face 883
property list uchar int vertex_indices
end_header
554390.3100000001 4886970 1.11701874597308
554428.6442857144 4886970 -0.07935175528251392
554457.395 4886970 0.2520226608097265
554490.9375 4886970 0.1793808525342905
554524.48 4886970 -2.040403835206464
554558.0225 4886970 21.44443655725182
554591.5649999999 4886970 17.1308710705953
554625.1075 4886970 8.594810981446532
554658.65 4886970 13.54782635064772
554692.1925 4886970 -0.7671403004913784
554725.735 4886970 1.631528715208362
554759.2775 4886970 10.68742453178226
554792.8200000001 4886970 37.56037438581856
554826.3625 4886970 69.54395557618938
554859.905 4886970 92.87015737392605
554893.4475 4886970 92.77847165165824
554926.99 4886970 85.2875684543064
554960.5325 4886970 88.37722125625785
554994.075 4886970 102.4616632549958
555027.6174999999 4886970 122.5262225806684
555061.16 4886970 143.1797549176135
555094.7025 4886970 167.3912838902625
555128.245 4886970 183.618484567044
555161.7875 4886970 195.70986822309
555195.33 4886970 207.513946133533
555195.33 4886998.3325 205.2798971523932
555195.3299999998 4887026.665 202.343075769057
555195.33 4887054.9975 202.3609647032647
555195.3299999998 4887083.33 208.9910466748056
555195.33 4887111.6625 213.2226537732551
555195.3299999998 4887139.995 206.0451180883101
555195.33 4887168.3275 188.9492061719936
555195.3299999998 4887196.66 176.409688841703
555195.33 4887224.9925 177.2948070027795
555195.3299999998 4887253.325 165.7757705678621
555195.33 4887281.6575 146.3331978844342
555195.3299999998 4887309.99 135.794009011265
555195.33 4887338.3225 133.7960402859773
555195.3299999998 4887366.654999999 125.7714623163784
555195.33 4887394.987499999 97.70996292182573
555195.3299999998 4887423.32 99.47155310327169
555195.33 4887451.6525 103.1554420611155
555195.3299999998 4887479.984999999 63.80926571137487
555195.33 4887508.317499999 59.68894725042858
555195.3299999998 4887536.65 82.64463301305304
555195.33 4887564.9825 96.76096752891911
555195.33 4887593.315 122.0500848243217
555195.3299999998 4887631.091666667 158.8103820920765
555195.33 4887649.98 177.501209096288
555161.7875 4887649.98 181.2891517935613
555128.245 4887649.98 170.106779778587
555094.7025 4887649.98 150.2264980122745
555061.16 4887649.98 148.2780539871205
555027.6175000001 4887649.98 171.6963173645988
554994.075 4887649.98 193.5568699102937
554960.5325 4887649.98 212.7489388213555
554926.99 4887649.98 223.672877530942
554893.4475 4887649.98 219.9503691762885
554859.905 4887649.98 211.0145627730055
554826.3625 4887649.98 206.6691866266704
554792.8199999999 4887649.98 220.9198042815681
554759.2775 4887649.98 239.2610443281435
554725.735 4887649.98 238.4049232453925
554692.1925 4887649.98 228.432406933096
554658.65 4887649.98 218.006587322142
554625.1075000002 4887649.98 207.7854514429962
554591.5649999999 4887649.98 219.7746860765286
554558.0225 4887649.98 244.775404139589
554524.48 4887649.98 260.7678436586665
554490.9375 4887649.98 267.9525004335735
554457.395 4887649.98 266.6810494963088
554417.1439999999 4887649.98 260.346775377459
554390.3100000001 4887649.98 256.418516668464
554390.3100000001 4887614.191578948 229.7006861465062
554390.3100000001 4887593.315 215.2740150572118
554390.3100000001 4887564.9825 197.3537508630516
554390.3100000001 4887536.65 181.5923354750842
554390.3100000001 4887508.317499999 166.4003461073474
554390.3100000001 4887479.984999999 150.1883599760194
554390.3100000001 4887451.6525 132.9602391564152
554390.3100000001 4887423.32 114.719845726049
554390.3100000001 4887394.987499999 100.6402982077317
554390.3100000001 4887366.654999999 85.95680410524264
554390.3100000001 4887338.3225 69.55727089543934
554390.3100000001 4887309.99 56.27876399447689
554390.3100000001 4887281.6575 23.85284983184322
554390.3100000001 4887253.325 0.410983853373882
554390.3100000001 4887224.9925 -1.227099206015146
554390.3100000001 4887196.66 -3.200109259111608
554390.3100000001 4887168.3275 -0.3924372389693638
554390.3100000001 4887139.995 0.8588346412326608
554390.3100000001 4887111.6625 0.1600196839674675
554390.3100000001 4887083.33 -2.882568808302381
554390.3100000001 4887054.9975 -5.856072185326736
554390.3100000001 4887026.665 -4.603964435486892
554390.3100000001 4886998.3325 -1.055345143155811
554425.3108695652 4887005.788421053 0.9653846544049158
554425.3108695652 4887041.576842104 6.081576377537353
554425.3108695652 4887077.365263158 1.86078140092401
554425.3108695652 4887113.153684211 -0.133555281765918
554425.3108695652 4887148.942105263 -0.7488883066013065
554425.3108695652 4887184.730526316 2.414904511318781
554425.3108695652 4887220.518947368 2.18542100570929
554425.3108695654 4887256.30736842 15.61223802035008
554425.3108695652 4887292.095789474 48.1563525277706
554425.3108695652 4887327.884210525 72.39636280854546
554425.3108695652 4887363.672631577 90.11601966851467
554425.3108695652 4887399.461052629 110.2943885823181
554425.3108695652 4887435.249473682 131.9801748612301
554425.3108695652 4887471.037894735 151.2300529923819
554425.3108695652 4887506.826315787 167.106570653655
554425.3108695652 4887542.614736839 184.8827333486401
554425.3108695652 4887578.403157892 206.6598666434968
554425.3108695654 4887614.191578945 232.9531023980703
554425.3108695652 4887649.979999998 261.5891104814909
554460.3117391305 4887005.788421054 -1.541614459706429
554460.3117391305 4887041.576842105 -6.789104816441352
554460.3117391306 4887077.365263158 -0.7478192803152087
554460.3117391306 4887113.153684211 0.4166180421806608
554460.3103339811 4887148.940918368 0.1372060813852635
554460.2907789835 4887184.712821811 -1.625968182920706
554460.3113878431 4887220.518650645 -0.5356941499522849
554460.3117391305 4887256.307368421 28.69887066247131
554460.3117391305 4887292.095789474 62.66596766065229
554460.3117391305 4887327.884210525 88.09685072784985
554460.3117391304 4887363.672631577 102.0939727933805
554460.3113878431 4887399.461349353 117.1270859590728
554460.2907789834 4887435.267178188 133.9204069563461
554460.3103339809 4887471.039081629 150.1795917244073
554460.3117391305 4887506.826315787 166.7853420515565
554460.3117391304 4887542.614736839 188.6943792253712
554460.3117391305 4887578.403157894 213.8695817727228
554460.3117391305 4887614.191578946 240.6518057245329
554460.3117391305 4887649.979999998 267.1272971408944
554495.3126086955 4887005.788421053 -2.491125688877968
554495.3126086955 4887041.576842105 -9.922786946645235
554495.3126086955 4887077.365263158 -0.7378444506488684
554495.3126086955 4887113.153684211 1.26159878743825
554495.0846231846 4887148.749531678 0.8124076988501586
554491.9118248266 4887181.857970336 1.021390440181308
554495.2556123178 4887220.470803971 -4.708950621579854
554495.3126086955 4887256.30736842 43.88370279133046
554495.3126086955 4887292.095789472 70.77231605520201
554495.3126086955 4887327.884210525 90.37030400773374
554495.3126086955 4887363.672631576 103.2004729272501
554495.2556123178 4887399.509196025 113.0857743758813
554491.911824827 4887438.122029661 129.3816227019984
554495.0846231846 4887471.23046832 148.4444244641351
554495.3126086955 4887506.826315787 168.973950809645
554495.3126086955 4887542.614736839 194.9776354052007
554495.3126086955 4887578.403157891 221.2075480462456
554495.3126086955 4887614.191578944 245.9692409794819
554495.3126086955 4887649.979999997 267.4949237097226
554530.3134782608 4887005.788421053 2.894824707366756
554530.3134782608 4887041.576842105 20.96618472616284
554530.3134782608 4887077.365263158 9.175172288019729
554530.3134782608 4887113.153684211 1.965392096558655
554530.186663516 4887148.83498806 -1.489616106877198
554528.4218249839 4887183.132694716 5.860374941238103
554530.2817745745 4887220.492168067 -2.375584617253146
554530.3134782607 4887256.30736842 34.16598872027705
554530.3134782608 4887292.095789474 55.80194594029653
554530.3134782608 4887327.884210525 74.8440751494701
554530.3134782608 4887363.672631577 90.63493630354266
554530.2817745747 4887399.48783193 106.4521871162451
554528.421824984 4887436.847305283 126.7201368835621
554530.1866635159 4887471.145011937 151.0508592907565
554530.3134782608 4887506.826315787 176.4889823659135
554530.3134782608 4887542.614736839 202.478095044631
554530.3134782608 4887578.403157892 224.0318710686998
554530.3134782608 4887614.191578945 243.8062195294811
554530.3134782608 4887649.979999998 258.6445070977107
554565.3143478259 4887005.788421053 3.730510459506367
554565.3143478259 4887041.576842105 39.93184879568102
554565.3143478259 4887077.365263158 3.057411841236496
554565.3143478259 4887113.153684211 3.88668938905555
554565.3143478258 4887148.942105262 -3.329546269993171
554565.3143478259 4887184.730526314 -3.844398967217641
554565.3143478259 4887220.518947367 2.279361170931603
554565.3143478261 4887256.30736842 27.53943463385657
554565.3143478259 4887292.095789474 33.68988916027337
554565.3143478259 4887327.884210525 53.87272722994972
554565.3143478259 4887363.672631577 80.39873103558679
554565.3143478259 4887399.461052629 101.2465650201849
554565.3143478258 4887435.249473682 125.4835164373276
554565.3143478259 4887471.037894735 149.0741262188349
554565.3143478259 4887506.826315787 172.9188634251768
554565.3143478259 4887542.614736839 193.9292288117101
554565.3143478259 4887578.403157892 210.5105113157894
554565.3143478259 4887614.191578945 228.7206705382337
554565.3143478259 4887649.979999998 240.0939048796859
554600.3152173911 4887007.776666665 1.547647460805836
554600.3152173911 4887045.553333333 30.29525404337441
554600.3152173911 4887083.329999999 1.747332388660735
554600.315217391 4887121.106666664 3.157390889313382
554600.3152173911 4887158.883333333 12.72045424314205
554600.3152173911 4887196.659999998 11.78519305633611
554600.3152173911 4887234.436666665 35.12686322144669
554600.315217391 4887272.21333333 51.58880154038246
554600.3152173911 4887309.989999996 53.47902707083732
554600.3152173911 4887347.766666663 59.85685241472456
554600.3152173911 4887385.54333333 77.5542693489452
554600.3152173911 4887423.319999995 108.8788688243985
554600.3152173911 4887461.096666663 133.6394467917177
554600.3152173911 4887498.873333328 155.9603272215199
554600.3152173911 4887536.649999995 174.8263221213644
554600.3152173911 4887574.426666661 192.5959483908188
554600.3152173911 4887612.203333328 203.6914640741075
554600.3152173911 4887649.979999994 213.2843311523898
554635.3160869563 4887007.776666666 5.767538429564992
554635.3160869563 4887045.553333334 17.32171605333816
554635.3160869563 4887083.33 -2.340910213710965
554635.3160869562 4887121.106666666 18.20032021178315
554635.3160869563 4887158.883333333 36.09438016662524
554635.3160869563 4887196.659999998 45.48314685312708
554635.3160869564 4887234.436666666 59.24955507093227
554635.3160869562 4887272.213333331 79.46442549547919
554635.3160869563 4887309.989999998 83.87599025458589
554635.3160869563 4887347.766666665 86.49185772136292
554635.3160869563 4887385.54333333 79.97259586278311
554635.3160869563 4887423.319999996 95.1941574135428
554635.3160869564 4887461.096666663 114.7421429830483
554635.3160869562 4887498.873333328 131.779348829604
554635.3160869563 4887536.649999997 150.5327559494568
554635.3160869563 4887574.426666662 170.3135597272787
554635.3160869563 4887612.203333328 187.1697139606718
554635.3160869563 4887649.979999994 209.886255001793
554670.3169565216 4887007.776666667 6.234327438900349
554670.3169565216 4887045.553333334 9.44684210119828
554670.3169565216 4887083.33 4.742956367958501
554670.3169565215 4887121.106666666 30.57010229502289
554670.3169565216 4887158.883333334 52.11860776773242
554670.3169565216 4887196.659999998 69.31446826235822
554670.3169565216 4887234.436666667 85.69644656864163
554670.3169565215 4887272.213333331 96.60750730716421
554670.3169565216 4887309.989999997 104.5741359370704
554670.3169565216 4887347.766666664 113.6299161149278
554670.3169565216 4887385.543333331 110.0259574155191
554670.3169565216 4887423.319999997 106.3020479626237
554670.3169565216 4887461.096666664 117.1959858943057
554670.3169565216 4887498.87333333 130.7723027189899
554670.3169565216 4887536.649999997 151.7823535535021
554670.3169565217 4887574.426666662 169.4461173480947
554670.3169565216 4887612.203333328 195.6379478953872
554670.3169565215 4887649.979999995 222.6686463953923
554705.3178260867 4887007.776666666 -0.5497894081444066
554705.3178260867 4887045.553333332 16.29983535306924
554705.3178260867 4887083.329999998 7.886370810355669
554705.3178260865 4887121.106666665 39.45464363716899
554705.3178260867 4887158.883333333 56.67452018236162
554705.3178260867 4887196.659999998 63.65508482571097
554705.3178260868 4887234.436666666 70.91401357388337
554705.3178260867 4887272.21333333 78.72181548270527
554705.3178260867 4887309.989999997 94.94075487799103
554705.3178260867 4887347.766666664 113.5052915735714
554705.3178260867 4887385.54333333 128.1785709624597
554705.3178260867 4887423.319999995 136.1376633790913
554705.3178260867 4887461.096666663 143.8055743363279
554705.3178260865 4887498.873333328 155.9310164843045
554705.3178260867 4887536.649999996 174.2777358751755
554705.3178260867 4887574.426666661 190.9937923640639
554705.3178260865 4887612.203333328 207.3210879347222
554705.3178260867 4887649.979999994 231.3551946919045
554740.3186956518 4887007.776666666 13.30203038803734
554740.3186956518 4887045.553333333 22.86176433133915
554740.3186956518 4887083.33 6.233358739094321
554740.3186956518 4887121.106666666 32.21869545456853
554740.3186956518 4887158.883333331 32.49585749184613
554740.3186956518 4887196.659999998 36.34037813584909
554740.3186956518 4887234.436666666 41.48569028220648
554740.3186956517 4887272.21333333 52.01555437998192
554740.3186956518 4887309.989999997 70.92078112367244
554740.3186956518 4887347.766666664 93.01035997374447
554740.3186956518 4887385.54333333 120.9528204271977
554740.3186956518 4887423.319999996 145.6256354981355
554740.3186956519 4887461.096666663 161.1500326927107
554740.3186956518 4887498.873333328 175.5487686893084
554740.3186956518 4887536.649999995 193.7778123442283
554740.3186956519 4887574.426666661 209.8964366493139
554740.3186956518 4887612.203333328 224.1024677230417
554740.3186956518 4887649.979999994 242.0280702753777
554775.319565217 4887007.776666666 52.40365737918742
554775.319565217 4887045.553333333 29.81955042054887
554775.319565217 4887083.33 12.94666988074196
554775.3195652169 4887121.106666666 10.67147967295499
554775.319565217 4887158.883333333 11.98186025535797
554775.319565217 4887196.659999998 15.57905761887343
554775.319565217 4887234.436666666 20.7190624210461
554775.3195652169 4887272.21333333 23.86464376875029
554775.319565217 4887309.989999997 49.06297598074164
554775.319565217 4887347.766666664 79.75451225176135
554775.319565217 4887385.54333333 106.6205934609926
554775.319565217 4887423.319999997 132.6537140594564
554775.319565217 4887461.096666664 154.642593619528
554775.3195652169 4887498.873333328 178.9708036375196
554775.319565217 4887536.649999996 191.5128503353361
554775.319565217 4887574.426666661 201.6401751232421
554775.319565217 4887612.203333328 214.8602910097085
554775.3195652169 4887649.979999994 231.9784800809486
554810.3204347822 4887007.776666666 64.91972221547448
554810.3204347822 4887045.553333333 45.86301583518136
554810.3204347822 4887083.329999999 20.40514702797083
554810.3204347822 4887121.106666664 26.709110190859
554810.3204347822 4887158.883333331 32.19648866244979
554810.3204347822 4887196.659999998 31.59384663300279
554810.3204347822 4887234.436666666 23.44193615464944
554810.3204347821 4887272.21333333 24.93711818289458
554810.3204347822 4887309.989999997 33.80603941040931
554810.3204347822 4887347.766666664 65.29712599363762
554810.3204347822 4887385.54333333 95.24054152587308
554810.3204347822 4887423.319999996 123.185835881281
554810.3204347822 4887461.096666662 146.4798610853543
554810.3204347822 4887498.873333328 161.5656723741337
554810.3204347822 4887536.649999995 168.4814453144347
554810.3204347822 4887574.426666661 178.8646618619617
554810.3204347822 4887612.203333328 193.1270520476302
554810.3204347822 4887649.979999994 210.974643834859
554845.3213043474 4887007.776666666 67.75171530641609
554845.3213043474 4887045.553333333 45.55342057090723
554845.3213043474 4887083.33 31.88722313817996
554845.3213043472 4887121.106666666 53.32013823062431
554845.3213043474 4887158.883333333 62.72290944109442
554845.3213043474 4887196.659999998 57.38212174662858
554845.3213043474 4887234.436666666 49.94397447002308
554845.3213043472 4887272.21333333 32.22116384264266
554845.3213043474 4887309.989999997 29.74041951288909
554845.3213043474 4887347.766666664 61.28217424333604
554845.3213043475 4887385.54333333 88.44079545251259
554845.3213043474 4887423.319999996 112.0103113645563
554845.3213043475 4887461.096666663 126.6536358892922
554845.3213043474 4887498.873333328 137.2024981700908
554845.3213043474 4887536.649999996 141.8840274832214
554845.3213043474 4887574.426666661 154.0077210281425
554845.3213043474 4887612.203333328 179.3135665637675
554845.3213043474 4887649.979999994 207.0273892688069
554880.3221739125 4887007.776666666 68.75227424903301
554880.3221739125 4887045.553333333 46.60772159313301
554880.3221739125 4887083.33 45.82380726087044
554880.3221739124 4887121.106666666 67.86854222762557
554880.3221739125 4887158.883333333 81.11803921465764
554880.3221739125 4887196.659999998 80.29283138915586
554880.3221739127 4887234.436666666 63.14106911300889
554880.3221739124 4887272.21333333 30.34049853385532
554880.3221739125 4887309.989999997 36.22040898621232
554880.3221739125 4887347.766666664 60.51701626998664
554880.3221739125 4887385.543333331 82.01633110706683
554880.3221739125 4887423.319999997 95.20567863315394
554880.3221739125 4887461.096666663 102.6207289652032
554880.3221739125 4887498.873333329 109.5505593298889
554880.3221739125 4887536.649999997 124.3083521039833
554880.3221739125 4887574.426666661 156.1143550436838
554880.3221739125 4887612.203333328 188.7194865875342
554880.3221739124 4887649.979999994 217.3937058572353
554915.3230434777 4887007.776666666 62.79380974768156
554915.3230434777 4887045.553333333 70.54743614236287
554915.3230434777 4887083.33 63.26914273578222
554915.3230434777 4887121.106666666 75.91845353800363
554915.3230434777 4887158.883333333 96.49668582425849
554915.3230434777 4887196.659999998 96.16982632684888
554915.3230434777 4887234.436666666 67.52866193329294
554915.3230434777 4887272.21333333 34.05618780908946
554915.3230434777 4887309.989999997 37.94567623041814
554915.3230434777 4887347.766666664 56.2114003849671
554915.3230434777 4887385.54333333 65.75171880887612
554915.3230434777 4887423.319999996 74.10344928189028
554915.3230434777 4887461.096666663 87.4535955445867
554915.3230434777 4887498.873333328 108.9281209099288
554915.3230434777 4887536.649999996 140.0736430938177
554915.3230434777 4887574.426666661 169.2886447523147
554915.3230434777 4887612.203333328 194.8681486029743
554915.3230434776 4887649.979999994 222.6654959587881
554950.3239130429 4887007.776666666 82.77943451158436
554950.3239130429 4887045.553333333 92.76883585703297
554950.3239130429 4887083.33 80.7316401359007
554950.3239130428 4887121.106666666 85.40486897895394
554950.3239130429 4887158.883333333 107.5009092485145
554950.3239130429 4887196.659999998 107.1687110973987
554950.323913043 4887234.436666666 79.62039849631938
554950.3239130428 4887272.21333333 42.2053992099888
554950.3239130429 4887309.989999997 32.34336665745158
554950.3239130429 4887347.766666664 43.14001331694563
554950.3239130429 4887385.543333329 56.01389428239663
554950.3239130429 4887423.319999996 79.51101680452237
554950.3239130429 4887461.096666663 103.8399607585569
554950.3239130429 4887498.873333328 125.1850352283306
554950.3239130429 4887536.649999996 150.1543414113072
554950.3239130429 4887574.426666661 178.0238136994003
554950.3239130429 4887612.203333328 201.3651031912776
554950.3239130429 4887649.979999994 218.9063212291251
554985.3247826081 4887007.776666666 106.98496491101
554985.3247826081 4887045.553333333 108.7136385310634
554985.3247826081 4887083.33 87.88033353073182
554985.3247826081 4887121.106666666 93.32725633518351
554985.3247826081 4887158.883333333 116.5121059190814
554985.3247826081 4887196.659999998 110.5269303457861
554985.3247826081 4887234.436666666 79.73167068472341
554985.324782608 4887272.21333333 52.34424204403936
554985.3247826081 4887309.989999997 36.95876635250023
554985.3247826081 4887347.766666664 34.28425249895342
554985.3247826081 4887385.54333333 52.21065398883648
554985.3247826081 4887423.319999996 82.22531692762769
554985.3247826081 4887461.096666663 101.5854674047634
554985.3247826081 4887498.873333328 123.8398681349796
554985.3247826081 4887536.649999996 151.2622111651887
554985.3247826081 4887574.426666661 174.6742749322602
554985.3247826081 4887612.203333328 189.7789802750878
554985.3247826081 4887649.979999994 197.5779443417904
555020.3256521733 4887007.776666665 127.8927280307109
555020.3256521733 4887045.553333333 116.852212341102
555020.3256521733 4887083.33 104.432824750508
555020.3256521731 4887121.106666666 109.8504045145124
555020.3256521734 4887158.883333333 124.5349831273415
555020.3256521733 4887196.659999998 116.9008782380798
555020.3256521733 4887234.436666665 87.09851489387765
555020.3256521731 4887272.21333333 60.01399224642923
555020.3256521733 4887309.989999997 60.22573781040469
555020.3256521733 4887347.766666664 45.24446301540345
555020.3256521733 4887385.54333333 43.52333434789744
555020.3256521733 4887423.319999996 70.15609807609582
555020.3256521733 4887461.096666663 92.71779423374205
555020.3256521733 4887498.873333328 118.862569177686
555020.3256521733 4887536.649999996 144.1917166141333
555020.3256521733 4887574.426666661 160.3605883077004
555020.3256521731 4887612.203333328 168.809867655154
555020.3256521731 4887649.979999994 177.7722116388935
555055.3265217384 4887007.776666666 145.1089390924759
555055.3265217384 4887045.553333333 121.9607598858839
555055.3265217384 4887083.33 126.2931220234678
555057.1633785199 4887119.555120273 137.897807338604
555055.4678184141 4887158.76398361 136.8392075795874
555055.3265217384 4887196.659999998 118.0138761715839
555055.3265217385 4887234.436666666 87.38069793967684
555055.3265217384 4887272.21333333 84.00329134983792
555055.3265217384 4887309.989999997 86.60119188470519
555055.3265217384 4887347.766666664 62.82143842880666
555055.3265217384 4887385.543333329 39.57901750614302
555055.3265217384 4887423.319999996 62.92594743307885
555055.3265217384 4887461.096666663 86.58936151388068
555055.3265217384 4887498.873333328 109.2587545759528
555055.3265217384 4887536.649999996 133.21120145897
555055.3265217384 4887574.426666661 138.2438238841605
555055.3265217384 4887612.203333328 142.3854192952269
555055.3265217384 4887649.979999994 151.456880674862
555090.3273913036 4887007.776666666 152.1608425262874
555090.3273913036 4887045.553333333 136.7986920364744
555090.3273913036 4887083.33 145.5822638496704
555093.629662914 4887118.31732149 154.1626094389998
555090.5814121969 4887158.668768318 148.5707732125916
555090.3273913036 4887196.659999998 122.3866912195338
555090.3273913037 4887234.436666666 101.136518307172
555090.3273913036 4887272.21333333 113.0586452796731
555090.3273913036 4887309.989999997 103.4662566985742
555090.3273913036 4887347.766666664 77.09851977815718
555090.3273913036 4887385.54333333 45.05839546469399
555090.3273913036 4887423.319999996 52.41435523008629
555090.3273913036 4887461.096666663 58.77954764047315
555090.3273913036 4887498.873333328 91.75155305442787
555090.3273913036 4887536.649999996 109.886601467774
555090.3273913036 4887574.426666661 116.1226314994389
555090.3273913036 4887612.203333328 129.7265406236396
555090.3273913036 4887649.979999994 147.8009440470345
555125.3282608688 4887007.776666666 162.3727048279021
555125.3282608688 4887045.553333333 154.9809659712774
555125.3282608688 4887083.33 165.6569921091029
555125.3486138524 4887121.089475015 173.7803846063433
555125.329826483 4887158.882010898 160.2779464552258
555125.3282608688 4887196.659999998 135.1146391265181
555125.3282608688 4887234.436666666 128.797160741583
555125.3282608687 4887272.21333333 134.8330820047532
555125.3282608688 4887309.989999997 115.2757370811862
555125.3282608688 4887347.766666664 86.43240078967241
555125.3282608688 4887385.54333333 68.59931901531037
555125.3282608688 4887423.319999995 60.26429036608023
555125.3282608688 4887461.096666663 52.89982056394255
555125.3282608688 4887498.873333328 76.49127360935471
555125.3282608688 4887536.649999995 95.06636612866467
555125.3282608688 4887574.426666661 118.7450026334546
555125.3282608688 4887612.203333328 144.9419166738491
555125.3282608687 4887649.979999994 168.4743462010319
555160.329130434 4887007.776666666 178.6069004187176
555160.329130434 4887045.553333333 176.5156162990388
555160.329130434 4887083.33 186.7317516885474
555160.3291304338 4887121.106666666 191.56218844483
555160.3291304341 4887158.883333333 175.5289926558279
555160.329130434 4887196.659999998 152.0568769217059
555160.329130434 4887234.436666666 158.0972155981631
555160.3291304338 4887272.21333333 146.7701026054445
555160.329130434 4887309.989999997 119.5648986219942
555160.3291304338 4887347.766666664 105.0152030993246
555160.329130434 4887385.54333333 97.45040859225332
555160.329130434 4887423.319999997 78.6328365029548
555160.329130434 4887461.096666663 55.53485381817022
555160.329130434 4887498.873333329 70.54290674119086
555160.329130434 4887536.649999996 100.1720815332079
555160.329130434 4887574.426666661 121.335403580871
555160.329130434 4887612.203333328 150.1062585500789
555160.329130434 4887649.979999994 181.1142536897165
555195.3299999993 4887007.776666666 204.3790425130293
555195.3299999991 4887045.553333333 201.6203136093341
555195.3299999991 4887083.33 208.991046673947
555195.329999999 4887121.106666666 212.097824409461
555195.3299999991 4887158.883333333 195.5842445532613
555195.3299999991 4887196.659999998 176.4096888412973
555195.3299999991 4887234.436666666 177.24592611581
555195.329999999 4887272.21333333 150.7840433554313
555195.3299999991 4887309.989999996 135.7940090118089
555195.3299999991 4887347.766666664 134.4099587384438
555195.3299999991 4887385.543333329 108.2276674860689
555195.3299999991 4887423.319999995 99.47155309723632
555195.3299999993 4887461.096666662 92.23823951941205
555195.3299999991 4887498.873333328 51.03622874520067
555195.3299999991 4887536.649999995 82.64463301291997
555195.3299999991 4887574.426666661 104.7528005603455
555195.3299999991 4887612.203333328 140.326673996993
555195.3299999991 4887649.979999993 177.5012090910017
3 0 1 96 
3 0 96 97 
3 0 97 98 
3 0 98 99 
3 0 99 100 
3 0 100 101 
3 0 101 102 
3 0 102 103 
3 0 103 104 
3 0 104 105 
3 1 2 115 
3 1 96 115 
3 2 3 115 
3 3 4 134 
3 3 115 134 
3 4 5 153 
3 4 134 153 
3 5 6 172 
3 5 153 172 
3 6 7 191 
3 6 172 191 
3 7 8 209 
3 7 191 209 
3 8 9 227 
3 8 209 227 
3 9 10 245 
3 9 227 245 
3 10 11 263 
3 10 245 263 
3 11 12 281 
3 11 263 281 
3 12 13 299 
3 12 281 299 
3 13 14 317 
3 13 299 317 
3 14 15 335 
3 14 317 335 
3 15 16 353 
3 15 335 353 
3 16 17 371 
3 16 353 371 
3 17 18 389 
3 17 371 389 
3 18 19 407 
3 18 389 407 
3 19 20 425 
3 19 407 425 
3 20 21 443 
3 20 425 443 
3 21 22 461 
3 21 443 461 
3 22 23 479 
3 22 461 479 
3 25 26 479 
3 25 26 497 
3 25 479 497 
3 26 27 480 
3 26 27 498 
3 26 479 480 
3 26 480 498 
3 27 28 499 
3 27 480 481 
3 27 481 499 
3 28 29 499 
3 29 30 482 
3 29 30 500 
3 29 481 482 
3 29 481 499 
3 29 482 500 
3 30 31 483 
3 30 31 501 
3 30 482 483 
3 30 483 501 
3 31 32 484 
3 31 32 502 
3 31 483 484 
3 31 484 502 
3 32 33 484 
3 33 34 485 
3 33 34 503 
3 33 484 485 
3 33 485 503 
3 34 35 486 
3 34 35 504 
3 34 485 486 
3 34 486 504 
3 35 36 487 
3 35 36 505 
3 35 486 487 
3 35 487 505 
3 36 37 487 
3 37 38 488 
3 37 38 506 
3 37 487 488 
3 37 488 506 
3 38 39 489 
3 38 39 507 
3 38 488 489 
3 38 489 507 
3 39 40 490 
3 39 40 508 
3 39 489 490 
3 39 490 508 
3 40 41 490 
3 41 42 491 
3 41 42 509 
3 41 490 491 
3 41 491 509 
3 42 43 492 
3 42 43 510 
3 42 491 492 
3 42 492 510 
3 43 44 493 
3 43 44 511 
3 43 492 493 
3 43 493 511 
3 44 45 493 
3 45 46 494 
3 45 46 512 
3 45 493 494 
3 45 494 512 
3 46 47 495 
3 46 47 513 
3 46 494 495 
3 46 495 513 
3 47 48 496 
3 47 48 514 
3 47 495 496 
3 47 496 514 
3 48 190 334 
3 48 334 352 
3 48 352 370 
3 48 370 388 
3 48 388 406 
3 48 406 424 
3 48 424 442 
3 48 442 460 
3 48 460 478 
3 48 478 496 
3 48 496 514 
3 72 105 106 
3 72 106 107 
3 72 107 108 
3 72 108 109 
3 72 109 110 
3 72 110 111 
3 72 111 112 
3 72 112 113 
3 72 113 114 
3 72 114 133 
3 72 133 152 
3 72 152 171 
3 72 171 190 
3 96 97 115 
3 97 98 116 
3 97 115 116 
3 98 99 117 
3 98 116 117 
3 99 100 118 
3 99 117 118 
3 100 101 119 
3 100 118 119 
3 101 102 120 
3 101 119 120 
3 102 103 121 
3 102 120 121 
3 103 104 122 
3 103 121 122 
3 104 105 123 
3 104 122 123 
3 105 106 124 
3 105 123 124 
3 106 107 125 
3 106 124 125 
3 107 108 126 
3 107 125 126 
3 108 109 127 
3 108 126 127 
3 109 110 128 
3 109 127 128 
3 110 111 129 
3 110 128 129 
3 111 112 130 
3 111 129 130 
3 112 113 131 
3 112 130 131 
3 113 114 132 
3 113 131 132 
3 114 132 133 
3 115 116 134 
3 116 117 135 
3 116 134 135 
3 117 118 136 
3 117 135 136 
3 118 119 137 
3 118 136 137 
3 119 120 138 
3 119 137 138 
3 120 121 139 
3 120 138 139 
3 121 122 140 
3 121 139 140 
3 122 123 141 
3 122 140 141 
3 123 124 142 
3 123 141 142 
3 124 125 143 
3 124 142 143 
3 125 126 144 
3 125 143 144 
3 126 127 145 
3 126 144 145 
3 127 128 146 
3 127 145 146 
3 128 129 147 
3 128 146 147 
3 129 130 148 
3 129 147 148 
3 130 131 149 
3 130 148 149 
3 131 132 150 
3 131 149 150 
3 132 133 151 
3 132 150 151 
3 133 151 152 
3 134 135 153 
3 135 136 154 
3 135 153 154 
3 136 137 155 
3 136 154 155 
3 137 138 156 
3 137 155 156 
3 138 139 157 
3 138 156 157 
3 139 140 158 
3 139 157 158 
3 140 141 159 
3 140 158 159 
3 141 142 160 
3 141 159 160 
3 142 143 161 
3 142 160 161 
3 143 144 162 
3 143 161 162 
3 144 145 163 
3 144 162 163 
3 145 146 164 
3 145 163 164 
3 146 147 165 
3 146 164 165 
3 147 148 166 
3 147 165 166 
3 148 149 167 
3 148 166 167 
3 149 150 168 
3 149 167 168 
3 150 151 169 
3 150 168 169 
3 151 152 170 
3 151 169 170 
3 152 170 171 
3 153 154 172 
3 154 155 173 
3 154 172 173 
3 155 156 174 
3 155 173 174 
3 156 157 175 
3 156 174 175 
3 157 158 176 
3 157 175 176 
3 158 159 177 
3 158 176 177 
3 159 160 178 
3 159 177 178 
3 160 161 179 
3 160 178 179 
3 161 162 180 
3 161 179 180 
3 162 163 181 
3 162 180 181 
3 163 164 182 
3 163 181 182 
3 164 165 183 
3 164 182 183 
3 165 166 184 
3 165 183 184 
3 166 167 185 
3 166 184 185 
3 167 168 186 
3 167 185 186 
3 168 169 187 
3 168 186 187 
3 169 170 188 
3 169 187 188 
3 170 171 189 
3 170 188 189 
3 171 189 190 
3 172 173 191 
3 173 174 192 
3 173 191 192 
3 174 175 193 
3 174 192 193 
3 175 176 194 
3 175 193 194 
3 176 177 195 
3 176 194 195 
3 177 178 196 
3 177 195 196 
3 178 179 197 
3 178 196 197 
3 179 180 198 
3 179 197 198 
3 180 181 199 
3 180 198 199 
3 181 182 200 
3 181 199 200 
3 182 183 201 
3 182 200 201 
3 183 184 202 
3 183 201 202 
3 184 185 203 
3 184 202 203 
3 185 186 204 
3 185 203 204 
3 186 187 205 
3 186 204 205 
3 187 188 206 
3 187 205 206 
3 188 189 207 
3 188 206 207 
3 189 190 208 
3 189 207 208 
3 190 208 226 
3 190 226 244 
3 190 244 262 
3 190 262 280 
3 190 280 298 
3 190 298 316 
3 190 316 334 
3 191 192 209 
3 192 193 210 
3 192 209 210 
3 193 194 211 
3 193 210 211 
3 194 195 212 
3 194 211 212 
3 195 196 213 
3 195 212 213 
3 196 197 214 
3 196 213 214 
3 197 198 215 
3 197 214 215 
3 198 199 216 
3 198 215 216 
3 199 200 217 
3 199 216 217 
3 200 201 218 
3 200 217 218 
3 201 202 219 
3 201 218 219 
3 202 203 220 
3 202 219 220 
3 203 204 221 
3 203 220 221 
3 204 205 222 
3 204 221 222 
3 205 206 223 
3 205 222 223 
3 206 207 224 
3 206 223 224 
3 207 208 225 
3 207 224 225 
3 208 225 226 
3 209 210 227 
3 210 211 228 
3 210 227 228 
3 211 212 229 
3 211 228 229 
3 212 213 230 
3 212 229 230 
3 213 214 231 
3 213 230 231 
3 214 215 232 
3 214 231 232 
3 215 216 233 
3 215 232 233 
3 216 217 234 
3 216 233 234 
3 217 218 235 
3 217 234 235 
3 218 219 236 
3 218 235 236 
3 219 220 237 
3 219 236 237 
3 220 221 238 
3 220 237 238 
3 221 222 239 
3 221 238 239 
3 222 223 240 
3 222 239 240 
3 223 224 241 
3 223 240 241 
3 224 225 242 
3 224 241 242 
3 225 226 243 
3 225 242 243 
3 226 243 244 
3 227 228 245 
3 228 229 246 
3 228 245 246 
3 229 230 247 
3 229 246 247 
3 230 231 248 
3 230 247 248 
3 231 232 249 
3 231 248 249 
3 232 233 250 
3 232 249 250 
3 233 234 251 
3 233 250 251 
3 234 235 252 
3 234 251 252 
3 235 236 253 
3 235 252 253 
3 236 237 254 
3 236 253 254 
3 237 238 255 
3 237 254 255 
3 238 239 256 
3 238 255 256 
3 239 240 257 
3 239 256 257 
3 240 241 258 
3 240 257 258 
3 241 242 259 
3 241 258 259 
3 242 243 260 
3 242 259 260 
3 243 244 261 
3 243 260 261 
3 244 261 262 
3 245 246 263 
3 246 247 264 
3 246 263 264 
3 247 248 265 
3 247 264 265 
3 248 249 266 
3 248 265 266 
3 249 250 267 
3 249 266 267 
3 250 251 268 
3 250 267 268 
3 251 252 269 
3 251 268 269 
3 252 253 270 
3 252 269 270 
3 253 254 271 
3 253 270 271 
3 254 255 272 
3 254 271 272 
3 255 256 273 
3 255 272 273 
3 256 257 274 
3 256 273 274 
3 257 258 275 
3 257 274 275 
3 258 259 276 
3 258 275 276 
3 259 260 277 
3 259 276 277 
3 260 261 278 
3 260 277 278 
3 261 262 279 
3 261 278 279 
3 262 279 280 
3 263 264 281 
3 264 265 282 
3 264 281 282 
3 265 266 283 
3 265 282 283 
3 266 267 284 
3 266 283 284 
3 267 268 285 
3 267 284 285 
3 268 269 286 
3 268 285 286 
3 269 270 287 
3 269 286 287 
3 270 271 288 
3 270 287 288 
3 271 272 289 
3 271 288 289 
3 272 273 290 
3 272 289 290 
3 273 274 291 
3 273 290 291 
3 274 275 292 
3 274 291 292 
3 275 276 293 
3 275 292 293 
3 276 277 294 
3 276 293 294 
3 277 278 295 
3 277 294 295 
3 278 279 296 
3 278 295 296 
3 279 280 297 
3 279 296 297 
3 280 297 298 
3 281 282 299 
3 282 283 300 
3 282 299 300 
3 283 284 301 
3 283 300 301 
3 284 285 302 
3 284 301 302 
3 285 286 303 
3 285 302 303 
3 286 287 304 
3 286 303 304 
3 287 288 305 
3 287 304 305 
3 288 289 306 
3 288 305 306 
3 289 290 307 
3 289 306 307 
3 290 291 308 
3 290 307 308 
3 291 292 309 
3 291 308 309 
3 292 293 310 
3 292 309 310 
3 293 294 311 
3 293 310 311 
3 294 295 312 
3 294 311 312 
3 295 296 313 
3 295 312 313 
3 296 297 314 
3 296 313 314 
3 297 298 315 
3 297 314 315 
3 298 315 316 
3 299 300 317 
3 300 301 318 
3 300 317 318 
3 301 302 319 
3 301 318 319 
3 302 303 320 
3 302 319 320 
3 303 304 321 
3 303 320 321 
3 304 305 322 
3 304 321 322 
3 305 306 323 
3 305 322 323 
3 306 307 324 
3 306 323 324 
3 307 308 325 
3 307 324 325 
3 308 309 326 
3 308 325 326 
3 309 310 327 
3 309 326 327 
3 310 311 328 
3 310 327 328 
3 311 312 329 
3 311 328 329 
3 312 313 330 
3 312 329 330 
3 313 314 331 
3 313 330 331 
3 314 315 332 
3 314 331 332 
3 315 316 333 
3 315 332 333 
3 316 333 334 
3 317 318 335 
3 318 319 336 
3 318 335 336 
3 319 320 337 
3 319 336 337 
3 320 321 338 
3 320 337 338 
3 321 322 339 
3 321 338 339 
3 322 323 340 
3 322 339 340 
3 323 324 341 
3 323 340 341 
3 324 325 342 
3 324 341 342 
3 325 326 343 
3 325 342 343 
3 326 327 344 
3 326 343 344 
3 327 328 345 
3 327 344 345 
3 328 329 346 
3 328 345 346 
3 329 330 347 
3 329 346 347 
3 330 331 348 
3 330 347 348 
3 331 332 349 
3 331 348 349 
3 332 333 350 
3 332 349 350 
3 333 334 351 
3 333 350 351 
3 334 351 352 
3 335 336 353 
3 336 337 354 
3 336 353 354 
3 337 338 355 
3 337 354 355 
3 338 339 356 
3 338 355 356 
3 339 340 357 
3 339 356 357 
3 340 341 358 
3 340 357 358 
3 341 342 359 
3 341 358 359 
3 342 343 360 
3 342 359 360 
3 343 344 361 
3 343 360 361 
3 344 345 362 
3 344 361 362 
3 345 346 363 
3 345 362 363 
3 346 347 364 
3 346 363 364 
3 347 348 365 
3 347 364 365 
3 348 349 366 
3 348 365 366 
3 349 350 367 
3 349 366 367 
3 350 351 368 
3 350 367 368 
3 351 352 369 
3 351 368 369 
3 352 369 370 
3 353 354 371 
3 354 355 372 
3 354 371 372 
3 355 356 373 
3 355 372 373 
3 356 357 374 
3 356 373 374 
3 357 358 375 
3 357 374 375 
3 358 359 376 
3 358 375 376 
3 359 360 377 
3 359 376 377 
3 360 361 378 
3 360 377 378 
3 361 362 379 
3 361 378 379 
3 362 363 380 
3 362 379 380 
3 363 364 381 
3 363 380 381 
3 364 365 382 
3 364 381 382 
3 365 366 383 
3 365 382 383 
3 366 367 384 
3 366 383 384 
3 367 368 385 
3 367 384 385 
3 368 369 386 
3 368 385 386 
3 369 370 387 
3 369 386 387 
3 370 387 388 
3 371 372 389 
3 372 373 390 
3 372 389 390 
3 373 374 391 
3 373 390 391 
3 374 375 392 
3 374 391 392 
3 375 376 393 
3 375 392 393 
3 376 377 394 
3 376 393 394 
3 377 378 395 
3 377 394 395 
3 378 379 396 
3 378 395 396 
3 379 380 397 
3 379 396 397 
3 380 381 398 
3 380 397 398 
3 381 382 399 
3 381 398 399 
3 382 383 400 
3 382 399 400 
3 383 384 401 
3 383 400 401 
3 384 385 402 
3 384 401 402 
3 385 386 403 
3 385 402 403 
3 386 387 404 
3 386 403 404 
3 387 388 405 
3 387 404 405 
3 388 405 406 
3 389 390 407 
3 390 391 408 
3 390 407 408 
3 391 392 409 
3 391 408 409 
3 392 393 410 
3 392 409 410 
3 393 394 411 
3 393 410 411 
3 394 395 412 
3 394 411 412 
3 395 396 413 
3 395 412 413 
3 396 397 414 
3 396 413 414 
3 397 398 415 
3 397 414 415 
3 398 399 416 
3 398 415 416 
3 399 400 417 
3 399 416 417 
3 400 401 418 
3 400 417 418 
3 401 402 419 
3 401 418 419 
3 402 403 420 
3 402 419 420 
3 403 404 421 
3 403 420 421 
3 404 405 422 
3 404 421 422 
3 405 406 423 
3 405 422 423 
3 406 423 424 
3 407 408 425 
3 408 409 426 
3 408 425 426 
3 409 410 427 
3 409 426 427 
3 410 411 428 
3 410 427 428 
3 411 412 429 
3 411 428 429 
3 412 413 430 
3 412 429 430 
3 413 414 431 
3 413 430 431 
3 414 415 432 
3 414 431 432 
3 415 416 433 
3 415 432 433 
3 416 417 434 
3 416 433 434 
3 417 418 435 
3 417 434 435 
3 418 419 436 
3 418 435 436 
3 419 420 437 
3 419 436 437 
3 420 421 438 
3 420 437 438 
3 421 422 439 
3 421 438 439 
3 422 423 440 
3 422 439 440 
3 423 424 441 
3 423 440 441 
3 424 441 442 
3 425 426 443 
3 426 427 444 
3 426 443 444 
3 427 428 445 
3 427 444 445 
3 428 429 446 
3 428 445 446 
3 429 430 447 
3 429 446 447 
3 430 431 448 
3 430 447 448 
3 431 432 449 
3 431 448 449 
3 432 433 450 
3 432 449 450 
3 433 434 451 
3 433 450 451 
3 434 435 452 
3 434 451 452 
3 435 436 453 
3 435 452 453 
3 436 437 454 
3 436 453 454 
3 437 438 455 
3 437 454 455 
3 438 439 456 
3 438 455 456 
3 439 440 457 
3 439 456 457 
3 440 441 458 
3 440 457 458 
3 441 442 459 
3 441 458 459 
3 442 459 460 
3 443 444 461 
3 444 445 462 
3 444 461 462 
3 445 446 463 
3 445 462 463 
3 446 447 464 
3 446 463 464 
3 447 448 465 
3 447 464 465 
3 448 449 466 
3 448 465 466 
3 449 450 467 
3 449 466 467 
3 450 451 468 
3 450 467 468 
3 451 452 469 
3 451 468 469 
3 452 453 470 
3 452 469 470 
3 453 454 471 
3 453 470 471 
3 454 455 472 
3 454 471 472 
3 455 456 473 
3 455 472 473 
3 456 457 474 
3 456 473 474 
3 457 458 475 
3 457 474 475 
3 458 459 476 
3 458 475 476 
3 459 460 477 
3 459 476 477 
3 460 477 478 
3 461 462 479 
3 462 463 480 
3 462 479 480 
3 463 464 481 
3 463 480 481 
3 464 465 482 
3 464 481 482 
3 465 466 483 
3 465 482 483 
3 466 467 484 
3 466 483 484 
3 467 468 485 
3 467 484 485 
3 468 469 486 
3 468 485 486 
3 469 470 487 
3 469 486 487 
3 470 471 488 
3 470 487 488 
3 471 472 489 
3 471 488 489 
3 472 473 490 
3 472 489 490 
3 473 474 491 
3 473 490 491 
3 474 475 492 
3 474 491 492 
3 475 476 493 
3 475 492 493 
3 476 477 494 
3 476 493 494 
3 477 478 495 
3 477 494 495 
3 478 495 496 
